<svg width="35" height="35" viewBox="0 0 35 35" fill="none" xmlns="http://www.w3.org/2000/svg">
<g id="1">
<circle id="BG" cx="17.5" cy="17.5" r="17.5" fill="#AD343E"/>
<g id="logo-twitter 2">
<g id="Group">
<path id="Vector" d="M25.2487 13.7333C24.7249 13.9661 24.172 14.1116 23.59 14.1989C24.172 13.8497 24.6376 13.2968 24.8413 12.6275C24.2884 12.9476 23.6773 13.1804 23.0081 13.3259C22.4843 12.773 21.7277 12.4238 20.9129 12.4238C19.3416 12.4238 18.0613 13.7042 18.0613 15.2755C18.0613 15.5083 18.0904 15.712 18.1486 15.9157C15.7916 15.7993 13.6673 14.6644 12.2415 12.9185C12.0087 13.355 11.8632 13.8206 11.8632 14.3443C11.8632 15.3337 12.3579 16.2067 13.1436 16.7304C12.678 16.7013 12.2415 16.585 11.8341 16.3813V16.4104C11.8341 17.8071 12.8235 18.971 14.1329 19.2329C13.9001 19.2911 13.6383 19.3202 13.3764 19.3202C13.2018 19.3202 12.9981 19.2911 12.8235 19.262C13.2018 20.3969 14.2493 21.2408 15.5006 21.2408C14.5112 21.9973 13.2891 22.4629 11.9505 22.4629C11.7177 22.4629 11.4849 22.4629 11.2812 22.4338C12.5616 23.2486 14.0456 23.7141 15.6752 23.7141C20.942 23.7141 23.8228 19.3493 23.8228 15.5665C23.8228 15.4501 23.8228 15.3046 23.8228 15.1882C24.3757 14.8099 24.8704 14.3152 25.2487 13.7333Z" fill="white"/>
</g>
</g>
</g>
</svg>
