<svg width="35" height="35" viewBox="0 0 35 35" fill="none" xmlns="http://www.w3.org/2000/svg">
<g id="3">
<circle id="BG" cx="17.5" cy="17.5" r="17.5" fill="#AD343E"/>
<g id="logo-instagram 1">
<g id="Group">
<path id="Vector" d="M17.499 10.5639C19.7599 10.5639 20.0276 10.5724 20.9208 10.6131C21.4578 10.6197 21.9897 10.7183 22.4933 10.9046C22.8586 11.0455 23.1903 11.2613 23.4671 11.5381C23.744 11.8149 23.9597 12.1466 24.1006 12.5119C24.287 13.0156 24.3856 13.5475 24.3921 14.0845C24.4325 14.9776 24.4413 15.2453 24.4413 17.5062C24.4413 19.7671 24.4329 20.0349 24.3921 20.928C24.3856 21.465 24.287 21.9969 24.1006 22.5006C23.9597 22.8658 23.744 23.1976 23.4671 23.4744C23.1903 23.7512 22.8586 23.967 22.4933 24.1078C21.9897 24.2942 21.4578 24.3928 20.9208 24.3994C20.028 24.4397 19.7603 24.4486 17.499 24.4486C15.2377 24.4486 14.97 24.4401 14.0772 24.3994C13.5402 24.3928 13.0083 24.2942 12.5046 24.1078C12.1394 23.967 11.8077 23.7512 11.5308 23.4744C11.254 23.1976 11.0382 22.8658 10.8974 22.5006C10.711 21.9969 10.6124 21.465 10.6058 20.928C10.5655 20.0349 10.5567 19.7671 10.5567 17.5062C10.5567 15.2453 10.5651 14.9776 10.6058 14.0845C10.6124 13.5475 10.711 13.0156 10.8974 12.5119C11.0382 12.1466 11.254 11.8149 11.5308 11.5381C11.8077 11.2613 12.1394 11.0455 12.5046 10.9046C13.0083 10.7183 13.5402 10.6197 14.0772 10.6131C14.9704 10.5728 15.2381 10.5639 17.499 10.5639ZM17.499 9.03809C15.2006 9.03809 14.9111 9.04776 14.0079 9.08889C13.3051 9.10287 12.6097 9.23594 11.9514 9.48244C11.3867 9.69521 10.8752 10.0286 10.4526 10.4595C10.0214 10.8822 9.6877 11.394 9.4748 11.9591C9.2283 12.6174 9.09523 13.3127 9.08125 14.0155C9.04093 14.9179 9.03125 15.2074 9.03125 17.5058C9.03125 19.8042 9.04093 20.0937 9.08206 20.997C9.09604 21.6998 9.22911 22.3951 9.4756 23.0534C9.68827 23.6184 10.0217 24.1302 10.4526 24.553C10.8754 24.9839 11.3872 25.3174 11.9522 25.53C12.6105 25.7765 13.3059 25.9096 14.0087 25.9236C14.9119 25.9639 15.2002 25.9744 17.4998 25.9744C19.7994 25.9744 20.0877 25.9647 20.9909 25.9236C21.6937 25.9096 22.3891 25.7765 23.0474 25.53C23.6097 25.3121 24.1204 24.9791 24.5467 24.5525C24.973 24.1259 25.3056 23.6151 25.5232 23.0526C25.7697 22.3943 25.9028 21.699 25.9167 20.9962C25.9571 20.0937 25.9667 19.8042 25.9667 17.5058C25.9667 15.2074 25.9571 14.9179 25.9159 14.0147C25.9019 13.3119 25.7689 12.6166 25.5224 11.9582C25.3097 11.3932 24.9763 10.8815 24.5454 10.4587C24.1225 10.0277 23.6108 9.6943 23.0458 9.48163C22.3875 9.23513 21.6921 9.10206 20.9893 9.08809C20.0869 9.04776 19.7974 9.03809 17.499 9.03809Z" fill="white"/>
<path id="Vector_2" d="M17.4968 13.1621C16.6368 13.1621 15.7961 13.4171 15.081 13.8949C14.3659 14.3728 13.8086 15.0519 13.4794 15.8464C13.1503 16.641 13.0642 17.5153 13.232 18.3588C13.3998 19.2023 13.8139 19.9771 14.4221 20.5853C15.0302 21.1934 15.805 21.6075 16.6485 21.7753C17.492 21.9431 18.3663 21.857 19.1609 21.5279C19.9554 21.1988 20.6346 20.6414 21.1124 19.9263C21.5902 19.2112 21.8452 18.3705 21.8452 17.5105C21.8452 16.3572 21.3871 15.2512 20.5716 14.4357C19.7561 13.6202 18.6501 13.1621 17.4968 13.1621ZM17.4968 20.3331C16.9386 20.3331 16.3929 20.1675 15.9287 19.8574C15.4645 19.5472 15.1027 19.1064 14.8891 18.5907C14.6755 18.0749 14.6196 17.5074 14.7285 16.9598C14.8374 16.4123 15.1062 15.9094 15.501 15.5146C15.8957 15.1199 16.3986 14.8511 16.9462 14.7422C17.4937 14.6332 18.0612 14.6891 18.577 14.9028C19.0927 15.1164 19.5336 15.4782 19.8437 15.9424C20.1539 16.4065 20.3194 16.9522 20.3194 17.5105C20.3194 18.2591 20.022 18.977 19.4927 19.5064C18.9634 20.0357 18.2454 20.3331 17.4968 20.3331Z" fill="white"/>
<path id="Vector_3" d="M22.0318 14.0039C22.5929 14.0039 23.0479 13.549 23.0479 12.9878C23.0479 12.4266 22.5929 11.9717 22.0318 11.9717C21.4706 11.9717 21.0156 12.4266 21.0156 12.9878C21.0156 13.549 21.4706 14.0039 22.0318 14.0039Z" fill="white"/>
</g>
</g>
</g>
</svg>
