<?xml version="1.0" ?><svg viewBox="0 0 32 32" xmlns="http://www.w3.org/2000/svg"><title/><g data-name="Layer 2" id="Layer_2"><path d="M30.35,15.64l-1.91-1.91-1-2.89A.5.5,0,0,0,27,10.5H20.5V9a.51.51,0,0,0-.5-.5H2a.5.5,0,0,0,0,1H19.5v10H13.45a2.5,2.5,0,0,0-4.9,0H5a.5.5,0,0,0,0,1H8.55a2.5,2.5,0,0,0,4.9,0h9.1a2.5,2.5,0,0,0,4.9,0H30a.5.5,0,0,0,.5-.5V16A.51.51,0,0,0,30.35,15.64ZM11,21.5A1.5,1.5,0,1,1,12.5,20,1.5,1.5,0,0,1,11,21.5Zm14,0A1.5,1.5,0,1,1,26.5,20,1.5,1.5,0,0,1,25,21.5Zm4.5-2H27.45a2.5,2.5,0,0,0-4.9,0H20.5v-8h6.14l.89,2.66a.39.39,0,0,0,.12.19l1.85,1.86Z"/><path d="M11.5,16a.5.5,0,0,0-.5-.5H4a.5.5,0,0,0,0,1h7A.5.5,0,0,0,11.5,16Z"/><path d="M12,13.5a.5.5,0,0,0,0-1H7a.5.5,0,0,0,0,1Z"/><path d="M4.5,13a.5.5,0,0,0-.5-.5H3a.5.5,0,0,0,0,1H4A.5.5,0,0,0,4.5,13Z"/></g></svg>